<?xml version="1.0" standalone="no"?>
<!DOCTYPE svg PUBLIC "-//W3C//DTD SVG 20010904//EN"
 "http://www.w3.org/TR/2001/REC-SVG-20010904/DTD/svg10.dtd">
<svg version="1.0" xmlns="http://www.w3.org/2000/svg"
 width="123.000000pt" height="123.000000pt" viewBox="0 0 123.000000 123.000000"
 preserveAspectRatio="xMidYMid meet">
<metadata>
Created by potrace 1.14, written by Peter Selinger 2001-2017
</metadata>
<g transform="translate(0.000000,123.000000) scale(0.100000,-0.100000)"
fill="#000000" stroke="none">
<path d="M372 1204 c-16 -11 -22 -25 -22 -54 0 -45 26 -70 72 -70 l28 0 0 -96
0 -95 -55 -96 c-30 -53 -55 -102 -55 -109 0 -8 -5 -14 -12 -14 -6 0 -9 -3 -5
-6 3 -3 -7 -18 -22 -33 -30 -27 -98 -140 -130 -213 -10 -24 -46 -90 -80 -148
-66 -113 -74 -150 -45 -200 37 -62 30 -61 517 -61 243 0 468 0 499 0 49 1 62
5 92 32 37 32 53 79 42 121 -11 46 -256 453 -288 481 -18 15 -25 25 -15 21 19
-7 -1 36 -76 163 -36 59 -37 65 -37 157 l0 96 28 0 c37 0 60 18 71 57 8 27 6
36 -14 57 l-24 26 -223 0 c-186 0 -227 -3 -246 -16z"/>
</g>
</svg>
